# xmcd CD database file
#
# Track frame offsets:
#	187
#	32255
#	58510
#	99090
#	124680
#	144157
#	165860
#	195337
#	223972
#	253382
#	285897
#
# Disc length: 4272 seconds
#
# Revision: 5
# Processed by: cddbd v1.5.2PL0 Copyright (c) Steve Scherf et al.
# Submitted via: CDex 1.70beta2
#
DISCID=8910ae0b
DTITLE=Kitaro - The Best of Kitaro
DYEAR=1995
DGENRE=New Age
TTITLE0=Orochi
TTITLE1=Caravansary
TTITLE2=Matsuri
TTITLE3=Silk Road
TTITLE4=Mirage
TTITLE5=Shimmering Horizon
TTITLE6=Agreement
TTITLE7=Sundance
TTITLE8=Koi
TTITLE9=The Clouds
TTITLE10=Heaven And Earth (land theme)
EXTD=YEAR: 1995
EXTT0=
EXTT1=
EXTT2=
EXTT3=
EXTT4=
EXTT5=
EXTT6=
EXTT7=
EXTT8=
EXTT9=
EXTT10=
PLAYORDER=
